<?xml version="1.0" standalone="no"?><!DOCTYPE svg PUBLIC "-//W3C//DTD SVG 1.1//EN" "http://www.w3.org/Graphics/SVG/1.1/DTD/svg11.dtd"><svg t="1704860248831" class="icon" viewBox="0 0 1623 1024" version="1.1" xmlns="http://www.w3.org/2000/svg" p-id="19674" xmlns:xlink="http://www.w3.org/1999/xlink" width="811.5" height="512"><path d="M1306.448457 149.547886H199.197257c-24.356571 0-45.831314 21.445486-45.831314 45.904457v765.015771c0 24.444343 21.474743 15.550171 45.831314 15.550172h1104.266972c24.356571 0 45.816686 8.894171 45.816685-15.550172V195.437714c2.881829-24.458971-18.475886-45.904457-42.832457-45.904457z" fill="#F1F3F9" p-id="19675"></path><path d="M1306.448457 138.825143H199.197257c-30.3104 0-56.554057 26.272914-56.554057 56.6272v765.015771c0 13.385143 5.485714 22.528 16.208457 26.126629 5.690514 1.901714 9.903543 2.1504 20.523886 1.375086l12.814628-0.994743a110.153143 110.153143 0 0 1 7.007086-0.234057h1104.266972c2.2528 0 4.388571 0.073143 7.007085 0.234057l15.330743 1.170285c8.8064 0.541257 12.785371 0.2048 17.993143-1.550628 10.722743-3.584 16.208457-12.741486 16.208457-26.126629V195.437714c3.540114-29.330286-22.484114-56.6272-53.540571-56.6272z m0 21.445486c18.563657 0 34.230857 16.457143 32.182857 33.938285l-0.073143 766.244572c0 4.798171-0.365714 5.397943-1.565257 5.807543-1.799314 0.585143-4.139886 0.760686-9.216 0.482742l-13.9264-1.053257a138.971429 138.971429 0 0 0-10.386285-0.394971H199.197257c-4.037486 0-7.606857 0.175543-12.917028 0.585143l-7.592229 0.6144c-7.811657 0.585143-10.825143 0.497371-13.019429-0.234057-1.214171-0.4096-1.565257-1.009371-1.565257-5.792915V195.437714c0-18.505143 16.647314-35.181714 35.093943-35.181714h1107.2512z" fill="#D6DCE8" p-id="19676"></path><path d="M1491.7632 933.010286v24.458971c0 27.4432-24.356571 51.902171-51.697371 51.902172H66.325943C38.970514 1009.371429 14.628571 984.912457 14.628571 957.469257V933.010286h1477.134629z" fill="#FFFFFF" p-id="19677"></path><path d="M1503.0272 921.746286H3.364571v35.722971c0 33.660343 29.374171 63.166171 62.961372 63.166172h1373.739886c33.572571 0 62.961371-29.505829 62.961371-63.166172V921.746286z m-22.528 22.528v13.194971c0 21.240686-19.309714 40.638171-40.433371 40.638172H66.325943l-2.340572-0.087772c-20.187429-1.360457-38.0928-20.099657-38.0928-40.5504v-13.194971h1454.606629z" fill="#D6DCE8" p-id="19678"></path><path d="M894.493257 933.010286v8.894171c0 15.5648-11.746743 30.354286-30.222628 30.354286h-225.133715c-15.506286 0-30.237257-11.790629-30.237257-30.354286v-8.894171h285.5936z" fill="#F1F3F9" p-id="19679"></path><path d="M894.493257 922.287543H608.899657a10.722743 10.722743 0 0 0-10.722743 10.722743v8.894171a40.594286 40.594286 0 0 0 40.96 41.091657h225.133715c23.581257 0 40.96-18.695314 40.96-41.091657v-8.894171a10.722743 10.722743 0 0 0-10.737372-10.722743z m-274.783086 21.445486h263.972572l-0.234057 1.916342a19.0464 19.0464 0 0 1-19.163429 15.886629H639.122286l-1.872457-0.087771a19.002514 19.002514 0 0 1-17.261715-15.637943l-0.277943-2.077257z" fill="#D6DCE8" p-id="19680"></path><path d="M1220.052114 249.607314V855.917714c-1.506743 25.1904-21.357714 46.006857-47.221028 46.006857H278.1184c-26.477714 0-47.2064-20.816457-47.2064-46.006857V249.607314c0-25.205029 20.714057-46.006857 47.2064-46.006857h895.473371c26.594743 0 46.460343 20.801829 46.460343 46.006857z" fill="#F1F3F9" p-id="19681"></path><path d="M1173.591771 192.336457H278.1184c-32.446171 0-58.4704 25.6-58.4704 57.270857V855.917714c0 31.670857 26.024229 57.270857 58.4704 57.270857h894.712686c31.451429 0 56.597943-25.044114 58.4704-56.612571l0.014628-606.939429c0-31.817143-25.2928-57.285486-57.724343-57.285485z m0 22.528c19.953371 0 35.181714 15.36 35.181715 34.742857V855.917714c-1.170286 19.2512-16.705829 34.728229-35.9424 34.728229H278.1184c-20.085029 0-35.9424-15.579429-35.9424-34.728229V249.607314c0-19.1488 15.857371-34.728229 35.9424-34.728228h895.473371z" fill="#D6DCE8" p-id="19682"></path><path d="M284.847543 273.320229c8.864914 0 16.237714-7.402057 16.237714-16.310858 0-8.894171-7.3728-16.296229-16.237714-16.296228-8.864914 0-16.237714 7.402057-16.237714 16.296228 0 8.9088 7.3728 16.310857 16.237714 16.310858zM332.8 273.320229c8.864914 0 16.237714-7.402057 16.237714-16.310858 0-8.894171-7.3728-16.296229-16.237714-16.296228-8.864914 0-16.237714 7.402057-16.237714 16.296228 0 8.9088 7.3728 16.310857 16.237714 16.310858z" fill="#D6DCE8" p-id="19683"></path><path d="M382.244571 273.320229c8.879543 0 16.237714-7.402057 16.237715-16.310858 0-8.894171-7.358171-16.296229-16.237715-16.296228-8.850286 0-16.223086 7.402057-16.223085 16.296228 0 8.9088 7.3728 16.310857 16.237714 16.310858z" fill="#F1F3F9" p-id="19684"></path><path d="M1220.052114 249.607314V838.217143H341.664914c-26.594743 0-47.3088-20.801829-47.3088-46.006857V203.600457h878.474972c27.355429 0 47.221029 20.801829 47.221028 46.006857z" fill="#E6E9F2" p-id="19685"></path><path d="M1321.940114 148.041143v609.294628c-2.238171 24.444343-22.103771 43.008-46.460343 43.008H380.0064c-26.594743 0-47.2064-20.699429-47.2064-45.904457V148.041143c0-25.1904 20.626286-45.889829 47.2064-45.889829h895.473371c26.477714 0 46.460343 19.938743 46.460343 45.889829z" fill="#F1F3F9" p-id="19686"></path><path d="M1275.479771 90.872686H380.0064c-32.533943 0-58.4704 25.468343-58.4704 57.168457v606.398171c0 31.700114 25.936457 57.168457 58.4704 57.168457h895.473371c30.149486 0 54.901029-22.966857 57.680458-53.248l0.043885-610.304c0-32.285257-25.117257-57.183086-57.724343-57.183085z m0 22.528c20.216686 0 35.196343 14.862629 35.196343 34.640457v609.28a35.269486 35.269486 0 0 1-35.196343 31.744H380.0064c-20.187429 0-35.927771-15.4624-35.927771-34.625829V148.041143c0-19.163429 15.754971-34.625829 35.927771-34.625829h895.473371z" fill="#D6DCE8" p-id="19687"></path><path d="M386.633143 171.739429c8.864914 0 16.237714-7.387429 16.237714-16.296229 0-8.894171-7.3728-16.296229-16.237714-16.296229-8.864914 0-16.237714 7.402057-16.237714 16.296229 0 8.9088 7.3728 16.310857 16.237714 16.310857zM434.702629 171.739429c8.864914 0 16.237714-7.387429 16.237714-16.296229 0-8.894171-7.3728-16.296229-16.237714-16.296229-8.864914 0-16.237714 7.402057-16.237715 16.296229 0 8.9088 7.3728 16.310857 16.237715 16.310857z" fill="#D6DCE8" p-id="19688"></path><path d="M484.1472 171.739429c8.864914 0 16.237714-7.387429 16.237714-16.296229 0-8.894171-7.3728-16.296229-16.237714-16.296229-8.864914 0-16.237714 7.402057-16.237714 16.296229 0 8.9088 7.3728 16.310857 16.237714 16.310857z" fill="#F1F3F9" p-id="19689"></path><path d="M1321.940114 148.041143v609.294628H450.179657c-26.594743 0-47.3088-20.699429-47.3088-45.904457V104.287086v-2.896457h871.862857c27.2384 0.760686 47.2064 20.699429 47.2064 46.665142z" fill="#E6E9F2" p-id="19690"></path><path d="M1426.724571 666.916571c-1.389714 25.205029-21.357714 46.021486-47.221028 46.021486H484.790857c-26.477714 0-47.2064-20.816457-47.2064-46.021486V60.635429C437.584457 35.4304 458.298514 14.628571 484.790857 14.628571h895.458743c26.594743 0 47.221029 20.801829 47.221029 46.006858V666.916571h-0.746058z" fill="#FFFFFF" p-id="19691"></path><path d="M1380.2496 3.364571H484.790857c-32.4608 0-58.485029 25.6-58.485028 57.270858V666.916571c0 31.685486 26.038857 57.285486 58.485028 57.285486h894.712686l3.028114-0.073143c26.053486-1.345829 47.323429-19.924114 53.628343-44.734171l0.277943-1.214172h2.296686V60.650057c0-31.714743-25.951086-57.270857-58.485029-57.270857z m0 22.528l2.399086 0.073143c19.002514 1.170286 33.543314 16.237714 33.543314 34.669715V655.652571h-0.146286l-0.585143 10.6496c-1.082514 19.850971-16.676571 35.357257-35.957028 35.357258H484.790857c-20.085029 0-35.9424-15.594057-35.9424-34.742858V60.635429c0-19.1488 15.857371-34.742857 35.9424-34.742858h895.458743z" fill="#D6DCE8" p-id="19692"></path><path d="M1425.334857 109.319314v22.542629H437.584457v-22.528z" fill="#D6DCE8" p-id="19693"></path><path d="M491.52 85.0944c8.864914 0 16.237714-7.504457 16.237714-16.310857 0-8.894171-7.3728-17.042286-16.237714-17.042286-8.864914 0-16.237714 7.402057-16.237714 16.296229 0 8.9088 7.3728 17.056914 16.237714 17.056914zM539.472457 85.0944c8.864914 0 16.237714-7.504457 16.237714-16.310857 0-8.894171-7.3728-17.042286-16.237714-17.042286-8.864914 0-16.237714 7.402057-16.237714 16.296229 0 8.9088 7.3728 17.056914 16.237714 17.056914zM588.931657 85.0944c8.864914 0 16.237714-7.504457 16.237714-16.310857 0-8.894171-7.3728-17.042286-16.237714-17.042286-8.864914 0-16.237714 7.402057-16.237714 16.296229 0 8.9088 6.626743 17.056914 16.237714 17.056914zM867.050057 288.109714a32.387657 32.387657 0 0 1-32.256 32.504686 32.402286 32.402286 0 0 1-32.3584-32.504686 32.329143 32.329143 0 1 1 64.6144 0zM1047.127771 288.109714a32.387657 32.387657 0 0 1-32.256 32.504686 32.475429 32.475429 0 0 1-32.3584-32.504686 32.299886 32.299886 0 1 1 64.6144 0z" fill="#AAB2C5" p-id="19694"></path><path d="M1003.768686 482.347886H845.794743c-25.102629 0-39.087543-28.203886-24.356572-48.903315a135.519086 135.519086 0 0 1 41.340343-37.858742 127.824457 127.824457 0 0 1 62.0544-16.310858c26.594743 0 50.951314 8.148114 71.562972 22.308572 12.5952 8.9088 23.595886 19.207314 32.475428 31.861028 14.087314 20.699429 0 48.903314-25.102628 48.903315z" fill="#D6DCE8" p-id="19695"></path><path d="M980.158171 482.347886h-110.006857a4.593371 4.593371 0 0 1 0-4.388572 58.455771 58.455771 0 0 1 55.442286-39.365485c25.834057 0 47.191771 16.296229 55.310629 39.350857 0 1.404343 0 2.896457-0.731429 4.388571z" fill="#AAB2C5" p-id="19696"></path><path d="M996.395886 408.9856v5.895314a7.314286 7.314286 0 0 1-7.3728 7.402057h-118.125715c-4.388571 0-7.3728-3.657143-7.3728-7.402057v-11.790628a126.654171 126.654171 0 0 1 62.0544-16.310857c25.746286 0 50.205257 8.162743 70.802286 22.206171z" fill="#FFFFFF" p-id="19697"></path><path d="M649.479314 276.962743c0 14.906514-11.527314 26.697143-25.834057 26.697143-14.423771 0-25.848686-11.790629-25.848686-26.697143 0-11.264 15.477029-45.1584 22.4256-59.947886 1.067886-3.013486 5.12-3.013486 6.831543 0 6.948571 14.262857 22.4256 48.040229 22.4256 59.947886zM1565.564343 138.386286c11.746743 11.1616 13.238857 29.710629 2.238171 42.276571-11.103086 11.893029-29.578971 13.399771-42.071771 2.238172-9.610971-8.148114-25.848686-46.752914-32.577829-63.707429-1.389714-2.998857 1.492114-6.7584 5.237029-5.997714 17.729829 4.5056 57.563429 16.296229 67.1744 25.205028zM1561.073371 269.663086c8.864914 14.043429 5.237029 31.861029-8.864914 40.7552-13.984914 8.9088-31.714743 5.149257-40.579657-8.894172-6.626743-10.400914-12.4928-51.9168-14.7456-70.465828-0.731429-3.657143 3.744914-5.895314 6.626743-4.388572 15.491657 9.537829 50.951314 31.8464 57.563428 43.008zM590.409143 343.669029c0 14.921143-11.527314 26.711771-25.834057 26.711771s-25.848686-11.805257-25.848686-26.711771c0-11.264 15.491657-45.143771 22.4256-59.947886 1.067886-2.998857 5.12-2.998857 6.846171 0 6.933943 14.804114 22.4256 48.683886 22.4256 59.947886zM1306.448457 482.347886h156.481829c9.610971 0 18.475886 3.744914 25.088 10.400914l110.767543 111.221029c6.612114 6.641371 10.357029 15.550171 10.357028 25.205028V785.554286c0 9.640229-3.744914 18.5344-10.357028 25.1904l-109.275429 109.714285a35.035429 35.035429 0 0 1-25.088 10.298515H1306.448457c-9.610971 0-18.475886-3.657143-25.088-10.298515l-112.259657-112.713142a35.328 35.328 0 0 1-10.254629-25.205029V629.174857c0-9.654857 3.627886-18.563657 10.254629-25.205028l111.498971-111.221029c7.3728-6.656 16.237714-10.400914 25.848686-10.400914z" fill="#D6DCE8" p-id="19698"></path><path d="M1462.930286 471.625143H1306.448457c-12.170971 0-23.595886 4.651886-33.031314 13.165714l-111.893943 111.586743a46.08 46.08 0 0 0-13.399771 32.797257v153.365943c0 12.463543 4.725029 24.093257 13.370514 32.768l112.259657 112.727771c8.645486 8.689371 20.260571 13.458286 32.694857 13.458286h157.973943c12.434286 0 24.049371-4.768914 32.694857-13.458286l109.275429-109.714285a46.153143 46.153143 0 0 0 13.472914-32.768V629.174857c0-12.434286-4.8128-24.064-13.487543-32.768l-110.752914-111.221028a45.860571 45.860571 0 0 0-32.694857-13.575315z m0 21.445486c6.685257 0 12.829257 2.56 17.495771 7.241142l110.752914 111.221029c4.681143 4.681143 7.241143 10.898286 7.241143 17.642057V785.554286c0 6.729143-2.574629 12.931657-7.241143 17.627428l-109.2608 109.714286a24.312686 24.312686 0 0 1-17.495771 7.138743H1306.448457c-6.7584 0-12.887771-2.516114-17.495771-7.138743l-112.245029-112.727771a24.605257 24.605257 0 0 1-7.138743-17.627429V629.174857c0-6.831543 2.516114-13.019429 7.138743-17.642057l111.469714-111.177143a27.209143 27.209143 0 0 1 18.285715-7.285028h156.4672z" fill="#AAB2C5" p-id="19699"></path><path d="M1420.302629 663.171657v-0.117028l0.117028-0.1024c0.731429-6.319543 0.731429-11.907657 0.731429-16.735086v-74.634972c0-12.010057-10.1376-18.563657-17.8176-19.748571l-0.863086-0.2048h-35.459657c-10.678857 0-20.289829 8.689371-20.289829 19.953371v74.752c0 5.471086 0 11.044571 0.848457 16.822858l8.118858 53.204114v0.219428c0.965486 5.149257 3.847314 9.216 7.2704 12.010058 3.408457 2.677029 7.899429 4.608 12.917028 4.608h16.237714c10.357029 0 18.475886-7.402057 20.085029-16.618058v-0.219428l8.104229-53.189486z" fill="#FFFFFF" p-id="19700"></path><path d="M1402.4704 540.906057h-35.459657c-16.778971 0-31.012571 13.633829-31.012572 30.676114v74.752c0 6.480457 0.058514 9.479314 0.394972 13.429029l0.526628 4.622629 8.162743 53.599085 0.058515 0.570515c1.389714 7.387429 5.412571 13.750857 11.029942 18.344228 5.705143 4.476343 12.507429 7.021714 19.704686 7.021714h16.237714a30.939429 30.939429 0 0 0 30.646858-25.512228l0.029257-0.438857 7.870171-51.521829 0.190172-0.380343 0.219428-1.857828c0.585143-4.842057 0.789943-9.303771 0.8192-14.935772v-77.692343c0-16.384-12.522057-28.130743-26.799543-30.354285l-2.618514-0.321829z m-35.459657 21.445486h34.230857l-0.526629-0.1024c5.749029 0.936229 9.728 4.651886 9.728 9.333028v77.6192l-0.058514 3.452343c-0.058514 2.179657-0.160914 4.154514-0.321828 6.114743l-0.146286 1.301943-8.352914 54.8864 0.058514-0.219429a9.508571 9.508571 0 0 1-9.508572 7.738515h-16.237714c-2.194286 0-4.388571-0.833829-6.290286-2.325943l-0.965485-0.892343a9.537829 9.537829 0 0 1-2.048-3.364571l-0.277943-1.141029-8.118857-53.204114-0.438857-3.905829-0.2048-3.803428a187.830857 187.830857 0 0 1-0.087772-5.178515v-77.092571c0-4.973714 4.447086-9.216 9.567086-9.216z" fill="#AAB2C5" p-id="19701"></path><path d="M1365.518629 845.165714h36.103314c11.849143 0 21.796571-9.962057 21.796571-21.869714v-36.2496c0-11.907657-9.947429-21.884343-21.796571-21.884343h-36.103314c-11.849143 0-21.796571 9.976686-21.796572 21.884343v36.2496c0 11.907657 9.947429 21.869714 21.796572 21.869714z" fill="#FFFFFF" p-id="19702"></path><path d="M1401.621943 754.439314h-36.103314a32.797257 32.797257 0 0 0-32.519315 32.607086v36.2496a32.797257 32.797257 0 0 0 32.519315 32.607086h36.103314a32.797257 32.797257 0 0 0 32.519314-32.621715v-36.234971a32.797257 32.797257 0 0 0-32.519314-32.621714z m0 21.445486c5.909943 0 11.0592 5.163886 11.0592 11.1616v36.2496c0 5.997714-5.149257 11.146971-11.0592 11.146971h-36.103314a11.337143 11.337143 0 0 1-11.0592-11.146971v-36.2496c0-5.997714 5.134629-11.1616 11.0592-11.1616h36.103314z" fill="#AAB2C5" p-id="19703"></path></svg>