<?xml version="1.0" standalone="no"?><!DOCTYPE svg PUBLIC "-//W3C//DTD SVG 1.1//EN" "http://www.w3.org/Graphics/SVG/1.1/DTD/svg11.dtd"><svg t="1704855315508" class="icon" viewBox="0 0 1024 1024" version="1.1" xmlns="http://www.w3.org/2000/svg" p-id="16434" xmlns:xlink="http://www.w3.org/1999/xlink" width="512" height="512"><path d="M349.866667 512l162.133333 256 162.133333-256h8.533334c93.866667 0 170.666667 76.8 170.666666 170.666667v170.666666c0 46.933333-38.4 85.333333-85.333333 85.333334H256c-46.933333 0-85.333333-38.4-85.333333-85.333334v-170.666666c0-93.866667 76.8-170.666667 170.666666-170.666667h8.533334z m183.466666 0l21.333334 42.666667-42.666667 128-42.666667-128 21.333334-42.666667h42.666666zM512 85.333333c93.866667 0 170.666667 76.8 170.666667 170.666667s-76.8 170.666667-170.666667 170.666667-170.666667-76.8-170.666667-170.666667 76.8-170.666667 170.666667-170.666667z" fill="#000000" p-id="16435"></path></svg>