<?xml version="1.0" standalone="no"?><!DOCTYPE svg PUBLIC "-//W3C//DTD SVG 1.1//EN" "http://www.w3.org/Graphics/SVG/1.1/DTD/svg11.dtd"><svg t="1704855643365" class="icon" viewBox="0 0 1024 1024" version="1.1" xmlns="http://www.w3.org/2000/svg" p-id="11094" xmlns:xlink="http://www.w3.org/1999/xlink" width="512" height="512"><path d="M512 259.938462L354.461538 118.153846H78.769231v94.523077h236.307692l157.538462 141.784615h472.615384V259.938462z" fill="#000000" p-id="11095"></path><path d="M275.692308 275.692308H78.769231v590.76923h866.461538V417.476923H433.230769L275.692308 275.692308z m575.015384 496.246154H173.292308V370.215385h63.015384l157.538462 141.784615h456.861538v259.938462z" fill="#000000" p-id="11096"></path><path d="M369.821538 554.535385l-84.676923 89.796923 84.676923 89.796923 40.172308-37.809231-49.230769-51.987692 49.230769-51.987693zM658.904615 734.129231l85.464616-89.796923-85.464616-89.796923-40.172307 37.80923 49.230769 51.987693-49.230769 51.987692zM428.331323 698.261662l130.032246-146.294154 41.208123 36.627692-130.028307 146.298092z" fill="#000000" p-id="11097"></path></svg>