<?xml version="1.0" standalone="no"?><!DOCTYPE svg PUBLIC "-//W3C//DTD SVG 1.1//EN" "http://www.w3.org/Graphics/SVG/1.1/DTD/svg11.dtd"><svg t="1704854639682" class="icon" viewBox="0 0 1024 1024" version="1.1" xmlns="http://www.w3.org/2000/svg" p-id="10923" xmlns:xlink="http://www.w3.org/1999/xlink" width="512" height="512"><path d="M126.11509 376.603271h120.028123c35.913711 0 65.025993 30.5111 65.025993 68.150756v313.758124c0 37.639656-29.112282 68.150756-65.025993 68.150756H126.11509c-35.913711 0-65.025993-30.5111-65.025992-68.150756V444.754027c0-37.639656 29.112282-68.150756 65.025992-68.150756zM444.908559 32.704656h120.028123c35.913711 0 65.025993 30.5111 65.025993 68.150757v657.656069c0 37.639656-29.112282 68.150756-65.025993 68.150756H444.908559c-35.913711 0-65.025993-30.5111-65.025992-68.150756V100.855413c0-37.638987 29.112282-68.150756 65.025992-68.150757z m324.327867 198.553283h120.028123c35.913711 0 65.025993 30.509762 65.025992 68.150756v459.103456c0 37.639656-29.112282 68.150756-65.025992 68.150756H769.236426c-35.913711 0-65.025993-30.5111-65.025993-68.150756V299.408695c0-37.640325 29.112282-68.150756 65.025993-68.150756zM63.513449 894.813663h910.37393c11.042036 0 25.598177 31.09645 25.598177 49.914606 0 18.817487-14.556141 52.08943-25.598177 52.089431H63.513449c-24.877695 0-39.433836-33.271275-39.433836-52.089431 0-18.817487 14.556141-49.914606 32.516006-49.914606h6.91783z m-6.91783 0" p-id="10924"></path></svg>