<?xml version="1.0" standalone="no"?><!DOCTYPE svg PUBLIC "-//W3C//DTD SVG 1.1//EN" "http://www.w3.org/Graphics/SVG/1.1/DTD/svg11.dtd"><svg t="1704855806772" class="icon" viewBox="0 0 1024 1024" version="1.1" xmlns="http://www.w3.org/2000/svg" p-id="19305" width="512" height="512" xmlns:xlink="http://www.w3.org/1999/xlink"><path d="M967.111111 113.777778H535.324444a56.888889 56.888889 0 0 1-39.822222-16.497778L414.72 16.497778a56.888889 56.888889 0 0 0-39.822222-16.497778H56.888889a56.888889 56.888889 0 0 0-56.888889 56.888889v910.222222a56.888889 56.888889 0 0 0 56.888889 56.888889h910.222222a56.888889 56.888889 0 0 0 56.888889-56.888889V170.666667a56.888889 56.888889 0 0 0-56.888889-56.888889z m-284.444444 398.222222a113.777778 113.777778 0 0 1-81.351111-34.702222l-207.075556 118.328889A106.951111 106.951111 0 0 1 398.222222 625.777778a170.666667 170.666667 0 0 1 0 23.893333l143.928889 72.248889A113.777778 113.777778 0 1 1 512 796.444444a170.666667 170.666667 0 0 1 0-23.893333l-141.653333-72.248889A113.777778 113.777778 0 1 1 284.444444 512a113.777778 113.777778 0 0 1 81.351112 34.702222l207.075555-118.328889A106.951111 106.951111 0 0 1 568.888889 398.222222a113.777778 113.777778 0 1 1 113.777778 113.777778z" p-id="19306" fill="#000000"></path></svg>