<svg t="1701023786017" class="icon" viewBox="0 0 1024 1024" version="1.1" xmlns="http://www.w3.org/2000/svg" p-id="864" width="512" height="512"><path d="M861.5424 451.9424a71.168 71.168 0 0 1 0 68.9152l-146.176 263.8848a67.5328 67.5328 0 0 1-24.1664 25.2416 64 64 0 0 1-33.0752 9.216H365.8752a64 64 0 0 1-33.0752-9.216 67.584 67.584 0 0 1-24.1664-25.2416l-146.176-263.8848a71.168 71.168 0 0 1 0-68.9152l146.176-263.8848A67.584 67.584 0 0 1 332.8 162.816 64 64 0 0 1 365.8752 153.6h292.2496c11.6224 0 23.04 3.1744 33.0752 9.216s18.3808 14.7456 24.1664 25.2416l146.176 263.8848zM804.352 486.4l-146.176-263.8848H365.8752L219.648 486.4l146.176 263.8848h292.2496L804.352 486.4z m-160.1024 0c0 36.5568-13.9264 71.5776-38.7072 97.4336a129.536 129.536 0 0 1-93.4912 40.3456 129.536 129.536 0 0 1-93.4912-40.3456A140.8 140.8 0 0 1 379.8016 486.4c0-36.5568 13.9264-71.5776 38.7072-97.4336A129.536 129.536 0 0 1 512 348.5696a129.536 129.536 0 0 1 93.4912 40.3968 140.8 140.8 0 0 1 38.7072 97.4336z m-66.0992 0c0-9.0624-1.7408-18.0224-5.0176-26.368a69.2224 69.2224 0 0 0-14.336-22.3744 66.048 66.048 0 0 0-21.4528-14.8992 63.744 63.744 0 0 0-72.0384 14.8992 69.12 69.12 0 0 0-14.336 22.3744 71.424 71.424 0 0 0 14.336 75.1104c12.3904 12.9024 29.184 20.1728 46.7456 20.1728 17.5104 0 34.304-7.2704 46.7456-20.1728 12.3904-12.9536 19.3536-30.464 19.3536-48.7424z" fill="#111032" p-id="865"></path></svg>