<?xml version="1.0" standalone="no"?><!DOCTYPE svg PUBLIC "-//W3C//DTD SVG 1.1//EN" "http://www.w3.org/Graphics/SVG/1.1/DTD/svg11.dtd"><svg t="1704855905478" class="icon" viewBox="0 0 1024 1024" version="1.1" xmlns="http://www.w3.org/2000/svg" p-id="24076" xmlns:xlink="http://www.w3.org/1999/xlink" width="512" height="512"><path d="M496.5 516.9V716h33v-66h65.9v-33h-65.9v-33h65.9v-33h-65.9v-34.3c46.8-7.8 82.4-48.5 82.4-97.5 0-54.6-44.3-98.9-98.9-98.9-54.6 0-98.9 44.3-98.9 98.9 0 49.1 35.7 89.8 82.4 97.7zM513 353.4c36.4 0 65.9 29.5 65.9 65.9 0 36.4-29.5 65.9-65.9 65.9s-65.9-29.5-65.9-65.9c0-36.3 29.5-65.9 65.9-65.9z" fill="#000000" p-id="24077"></path><path d="M924.6 264.9V106.6H766.3V181H259.7v-74.4H101.4v158.3h74.7v506.6h-74.7v158.3h158.3v-74.4h506.6v74.4h158.3V771.5h-74.9V264.9h74.9zM798 138.3h95v95h-95v-95z m-31.7 60.8v35.8H259.7v-35.8h506.6z m-5.4 71.2v495.8H265.1V270.3h495.8zM133 138.3h95v95h-95v-95z m61.3 126.6h35.4v506.6h-35.4V264.9zM228 898.2h-95v-95h95v95z m31.7-61.2v-35.4h506.6V837H259.7zM893 898.2h-95v-95h95v95z m-61.1-126.7h-35.6V264.9h35.6v506.6z" fill="#000000" p-id="24078"></path></svg>