<?xml version="1.0" standalone="no"?><!DOCTYPE svg PUBLIC "-//W3C//DTD SVG 1.1//EN" "http://www.w3.org/Graphics/SVG/1.1/DTD/svg11.dtd"><svg t="1704855437161" class="icon" viewBox="0 0 1024 1024" version="1.1" xmlns="http://www.w3.org/2000/svg" p-id="4221" xmlns:xlink="http://www.w3.org/1999/xlink" width="512" height="512"><path d="M777.09 414.37c0 87.32-67.57 158.11-150.91 158.11s-150.91-70.79-150.91-158.11 67.57-158.11 150.91-158.11 150.91 70.79 150.91 158.11z m-75.46 0c0-43.6-33.85-79.06-75.45-79.06s-75.45 35.46-75.45 79.06 33.86 79.05 75.45 79.05 75.45-35.42 75.45-79.05z" fill="#000000" p-id="4222"></path><path d="M173.46 849.16V177.21h679.08v471.1a37.37 37.37 0 0 0 10.8 26.1c0.29 0.3 0.59 0.6 0.88 0.91C887.93 699.79 928 681.89 928 647V177.21c0-43.66-33.79-79.06-75.46-79.06H173.46c-41.67 0-75.46 35.4-75.46 79.06v671.95c0 43.66 33.79 79.06 75.46 79.06h78.41c18.68 0 34.55-14.67 36.43-34.15 0-0.26 0.05-0.53 0.08-0.79 2.32-23.55-14.68-44.12-37.27-44.12z" fill="#000000" p-id="4223"></path><path d="M839.47 928.22H412.9c-51.21 0-88.75-52.75-72-103.45C381.79 700.93 494.07 612 626.18 612s244.39 88.93 285.29 212.77c16.74 50.7-20.8 103.45-72 103.45z m0.14-79.06c-31.13-92-115.06-158.1-213.43-158.1s-182.3 66.08-213.43 158.1z" fill="#000000" p-id="4224"></path><path d="M248.91 256.26m38.35 0l111.93 0q38.35 0 38.35 38.35l0 2.35q0 38.35-38.35 38.35l-111.93 0q-38.35 0-38.35-38.35l0-2.35q0-38.35 38.35-38.35Z" fill="#000000" p-id="4225"></path><path d="M248.91 414.37m38.35 0l111.93 0q38.35 0 38.35 38.35l0 2.35q0 38.35-38.35 38.35l-111.93 0q-38.35 0-38.35-38.35l0-2.35q0-38.35 38.35-38.35Z" fill="#000000" p-id="4226"></path><path d="M248.91 572.48m38.35 0l111.93 0q38.35 0 38.35 38.35l0 2.35q0 38.35-38.35 38.35l-111.93 0q-38.35 0-38.35-38.35l0-2.35q0-38.35 38.35-38.35Z" fill="#000000" p-id="4227"></path></svg>