<?xml version="1.0" standalone="no"?><!DOCTYPE svg PUBLIC "-//W3C//DTD SVG 1.1//EN" "http://www.w3.org/Graphics/SVG/1.1/DTD/svg11.dtd"><svg t="1701021328118" class="icon" viewBox="0 0 1024 1024" version="1.1" xmlns="http://www.w3.org/2000/svg" p-id="1046" xmlns:xlink="http://www.w3.org/1999/xlink" width="512" height="512"><path d="M664.522464 954.0928l72.896 1.024a11.808 11.808 0 0 0 11.84-9.984l29.056-190.592c0.64-4.1856-0.7872-8.448-3.84-11.456l-74.496-73.792-155.328-190.272c-2.2592-2.7264-3.3472-2.3232-3.264 1.216l2.048 153.92a4.672 4.672 0 0 0 2.688 4.352c117.312 61.12 51.328 224-75.328 183.232-72.448-23.36-85.568-110.976-29.888-161.152a174.528 174.528 0 0 1 31.36-22.528c2.56-1.4144 4.16-4.1088 4.16-7.04l0.384-137.664c0-8.576-2.752-9.6-8.256-3.072a32646.2272 32646.2272 0 0 1-146.88 172.736c-27.0912 31.6608-49.5552 56.1088-67.392 73.344-13.12 12.736-49.664 8.96-62.464 5.12-17.152-5.184-19.2-38.976-22.464-60.352-15.0144-99.7504-30.272-200-45.76-300.736a6.432 6.432 0 0 0-3.584-4.8c-100.544-45.952-103.68-173.12-13.504-231.424 1.92-1.2352 3.072-2.9824 3.456-5.248 1.152-6.528 1.8176-13.0304 1.984-19.52 1.536-63.936 71.616-122.112 134.336-117.568 12.2496 0.8576 29.8688 6.1888 52.864 16a2041.3056 2041.3056 0 0 1 206.656 102.08c3.4176 1.92 7.0016 3.3088 10.752 4.16 2.1376 0.4736 4.1408 0.128 6.016-1.024a1714.5792 1714.5792 0 0 1 161.216-85.184c43.52-20.096 70.0608-31.2704 79.616-33.536 80.896-19.456 151.936 51.776 150.08 131.072a10.048 10.048 0 0 0 4.352 8.512c44.16 30.72 64.6208 71.5776 61.376 122.56-3.584 56.32-32 85.696-81.344 106.432a5.6448 5.6448 0 0 0-3.584 4.736c-20.9472 153.6-50.8544 356.928-89.728 609.984-2.6432 17.2416-12.1152 27.008-28.416 29.312-27.328 3.968-58.624 1.216-80.064 1.152-146.304-0.2112-292.608-0.192-438.912 0.064-24.512 0.064-39.424-4.864-43.712-30.208a3795.648 3795.648 0 0 1-27.392-190.784c-2.0864-17.7472 5.76-27.6224 23.552-29.632l6.144-0.704c16.8128-1.8752 26.496 5.5488 29.056 22.272l24.256 159.744c0.544 3.7824 3.8336 6.5728 7.68 6.528l387.776-1.28z m104.32-881.6c-59.776 25.28-118.912 51.328-177.984 78.208-1.024 0.4736-1.1712 1.1136-0.448 1.92l36.8 44.352c0.7488 0.896 1.9328 1.28 3.008 0.96 54.0608-14.976 107.8656-29.3952 161.408-43.264 30.784-8 74.56-20.544 50.112-59.968-17.3632-28.032-41.664-35.4304-72.896-22.208z m-446.848 174.848l9.28-71.296a2.8544 2.8544 0 0 1 1.2352-2.0096 2.7136 2.7136 0 0 1 2.2848-0.3584l57.344 17.024a2.144 2.144 0 0 0 2.304-0.832l30.144-43.52c0.6016-0.896 0.4096-1.536-0.576-1.92a2230.3936 2230.3936 0 0 1-117.248-52.096c-28.032-13.44-53.824-29.504-76.032-23.872-32.384 8.256-91.008 62.848-33.088 85.952 19.1616 7.6416 33.0496 12.416 41.664 14.336 4.736 1.0688 6.9568 4.0128 6.656 8.832l-2.688 43.392a4.9024 4.9024 0 0 1-1.8752 3.5712 4.7616 4.7616 0 0 1-3.8848 0.9088 1329.536 1329.536 0 0 1-70.144-15.936c-26.496-6.784-46.656-8.96-57.472 19.264-15.872 41.408 7.936 87.872 54.784 89.088 74.9248 1.8816 149.7856 5.1456 224.576 9.792a2.7968 2.7968 0 0 0 2.4576-1.216 2.6432 2.6432 0 0 0 0.1664-2.688 189.504 189.504 0 0 1-18.048-60.864 4.704 4.704 0 0 0-3.84-4.096l-45.888-8.512c-1.6192-0.2944-2.3232-1.28-2.112-2.944z m173.632 73.5424c16.7808 1.7664 33.6384-3.7952 46.8544-15.4496 13.2224-11.6544 21.728-28.4544 23.648-46.7072 3.9936-37.9968-21.0944-71.7824-56.0384-75.456-16.7808-1.76-33.632 3.7952-46.848 15.456-13.2288 11.6544-21.7344 28.4544-23.648 46.7008-3.9936 38.0032 21.0944 71.7824 56.032 75.456z m238.912 182.848c78.4-5.632 32.448 90.112-1.856 81.984-6.0544-1.408-11.84-5.376-17.344-11.904-6.8224-8.064-8.6592-7.0656-5.504 3.008 7.296 23.104 57.664 66.624 77.312 82.752a2.816 2.816 0 0 0 4.608-1.792l38.272-273.536a3.008 3.008 0 0 0-3.136-3.456l-87.616 3.968c-22.208-0.064-54.464 5.248-66.752-15.36-10.944-18.368 1.792-39.552 19.072-47.808 6.3168-3.072 15.8976-4.4608 28.736-4.16 38.784 0.896 77.568 0.256 116.352-1.92 36.864-2.048 72.512-9.984 77.632-52.608 3.456-28.672-18.432-71.936-53.696-62.144-81.088 22.592-162.176 38.08-236.096 76.096a13.504 13.504 0 0 0-7.04 14.72c3.904 19.072 11.456 45.056 6.976 61.824-9.344 34.688-52.224 18.048-75.648 13.952-10.4512-1.8368-12.2432 1.2992-5.376 9.408l150.72 177.344c4.9088 5.76 6.8928 4.9024 5.952-2.56-2.944-23.3856 8.5376-39.3216 34.432-47.808z m-338.176-119.488l-207.552 0.576a0.608 0.608 0 0 0-0.4736 0.224 0.7424 0.7424 0 0 0-0.1664 0.5376 50236.352 50236.352 0 0 1 36.16 222.08c3.0336 18.7776 5.2288 36.928 6.592 54.464 0.5568 6.912 2.9888 7.6416 7.296 2.176l56.96-72.64a2.56 2.56 0 0 0-2.112-4.16c-14.2912 0.6016-27.2192-3.584-38.784-12.544-18.304-14.08-23.68-45.824 1.088-56.768 27.84-12.352 65.216 5.952 55.488 40.128a3.392 3.392 0 0 0 6.144 2.624c3.5008-5.9712 8.5376-12.8384 15.104-20.608 33.664-39.808 67.2256-79.744 100.672-119.808a266.5984 266.5984 0 0 0 23.232-32.512 8.384 8.384 0 0 0-6.016-12.672c-14.208-1.856-33.408-7.424-39.68-22.4-6.9952-16.6784-10.5344-15.744-10.624 2.816-0.0384 7.808 0.3008 15.7056 1.024 23.68 0.3008 3.2-1.152 4.8-4.352 4.8z m150.4 349.8944c2.048-20.544-14.144-38.976-36.16-41.1712-22.016-2.1952-41.5232 12.672-43.5776 33.216-2.048 20.5376 14.144 38.976 36.16 41.1648 22.016 2.2016 41.5232-12.672 43.5712-33.2096z" fill="#343333" p-id="1047"></path><path d="M590.858464 150.7008c59.072-26.88 118.208-52.928 177.984-78.208 31.232-13.2224 55.5328-5.824 72.896 22.208 24.448 39.424-19.328 51.968-50.112 59.968a9913.3632 9913.3632 0 0 0-161.408 43.264 2.88 2.88 0 0 1-3.008-0.96l-36.8-44.352c-0.7232-0.8064-0.576-1.4464 0.448-1.92zM324.106464 250.2848l45.888 8.512c2.0544 0.384 3.616 2.048 3.84 4.096a189.504 189.504 0 0 0 18.048 60.864 2.6432 2.6432 0 0 1-0.1664 2.688 2.7968 2.7968 0 0 1-2.4576 1.216 6067.4304 6067.4304 0 0 0-224.576-9.792c-46.848-1.216-70.656-47.68-54.784-89.088 10.816-28.224 30.976-26.048 57.472-19.264a1329.536 1329.536 0 0 0 70.144 15.936 4.7616 4.7616 0 0 0 3.8848-0.9088 4.9024 4.9024 0 0 0 1.8752-3.5712l2.688-43.392c0.3008-4.8192-1.92-7.7632-6.656-8.832-8.6144-1.92-22.5024-6.6944-41.664-14.336-57.92-23.104 0.704-77.696 33.088-85.952 22.208-5.632 48 10.432 76.032 23.872a2230.3936 2230.3936 0 0 0 117.248 52.096c0.9856 0.384 1.1776 1.024 0.576 1.92l-30.144 43.52a2.144 2.144 0 0 1-2.304 0.832l-57.344-17.024a2.7136 2.7136 0 0 0-2.2848 0.3584 2.8544 2.8544 0 0 0-1.2352 2.0096l-9.28 71.296c-0.2112 1.664 0.4928 2.6496 2.112 2.944z" fill="#FCC556" p-id="1048"></path><path d="M510.090161 183.271797a63.616 69.184 6 1 0-14.463394 137.610006 63.616 69.184 6 1 0 14.463394-137.610006Z" fill="#FCC556" p-id="1049"></path><path d="M739.274464 384.7488c1.5808 39.7696 0 79.424-4.736 118.976-25.8944 8.4928-37.376 24.4288-34.432 47.808 0.9408 7.4688-1.0432 8.32-5.952 2.56l-150.72-177.344c-6.8672-8.1024-5.0752-11.2384 5.376-9.408 23.424 4.096 66.304 20.736 75.648-13.952 4.48-16.768-3.072-42.752-6.976-61.824a13.504 13.504 0 0 1 7.04-14.72c73.92-38.016 155.008-53.504 236.096-76.096 35.264-9.792 57.152 33.472 53.696 62.144-5.12 42.624-40.768 50.56-77.632 52.608-38.784 2.176-77.568 2.816-116.352 1.92-12.8384-0.2944-22.4192 1.088-28.736 4.16-17.28 8.256-30.016 29.44-19.072 47.808 12.288 20.608 44.544 15.296 66.752 15.36zM400.714464 379.4368a246.56 246.56 0 0 1-1.024-23.68c0.0896-18.56 3.6288-19.4944 10.624-2.816 6.272 14.976 25.472 20.544 39.68 22.4a8.384 8.384 0 0 1 6.016 12.672 266.5984 266.5984 0 0 1-23.232 32.512c-33.4464 40.064-67.008 80-100.672 119.808-6.5664 7.7696-11.6032 14.6368-15.104 20.608a3.392 3.392 0 0 1-6.144-2.624c9.728-34.176-27.648-52.48-55.488-40.128-24.768 10.944-19.392 42.688-1.088 56.768 11.5648 8.96 24.4928 13.1456 38.784 12.544a2.56 2.56 0 0 1 2.112 4.16l-56.96 72.64c-4.3072 5.4656-6.7392 4.736-7.296-2.176-1.3632-17.536-3.5584-35.6864-6.592-54.464a50236.352 50236.352 0 0 0-36.16-222.08 0.7424 0.7424 0 0 1 0.1664-0.5376 0.608 0.608 0 0 1 0.4736-0.2304l207.552-0.576c3.2 0 4.6528-1.6 4.352-4.8z" fill="#FCC556" p-id="1050"></path><path d="M734.538464 503.7248c4.736-39.552 6.3168-79.2064 4.736-118.976l87.616-3.968a3.008 3.008 0 0 1 3.136 3.456l-38.272 273.536a2.816 2.816 0 0 1-4.608 1.792c-19.648-16.128-70.016-59.648-77.312-82.752-3.1552-10.0672-1.3184-11.072 5.504-3.008 5.504 6.528 11.2896 10.496 17.344 11.904 34.304 8.128 80.256-87.616 1.856-81.984z" fill="#CA9F54" p-id="1051"></path><path d="M699.978464 669.2928l74.496 73.792c3.0528 3.008 4.48 7.2704 3.84 11.456l-29.056 190.592a11.808 11.808 0 0 1-11.84 9.984l-72.896-1.024 35.456-284.8z" fill="#CBCCCE" p-id="1052"></path><path d="M467.024558 726.177654a40.064 37.376 5.7 1 0 79.731812 7.958292 40.064 37.376 5.7 1 0-79.731812-7.958292Z" fill="#FCC556" p-id="1053"></path></svg>